<svg width="80" height="80" viewBox="0 0 80 80" fill="none" xmlns="http://www.w3.org/2000/svg">
<circle opacity="0.05" cx="40" cy="40" r="40" fill="white"/>
<circle cx="40" cy="40" r="28" fill="white" fill-opacity="0.05"/>
<path d="M33.9578 48.976V46.144L41.2058 39.712C41.7498 39.232 42.1338 38.78 42.3578 38.356C42.5818 37.932 42.6938 37.536 42.6938 37.168C42.6938 36.64 42.5858 36.172 42.3698 35.764C42.1538 35.348 41.8498 35.024 41.4578 34.792C41.0658 34.552 40.6058 34.432 40.0778 34.432C39.5258 34.432 39.0378 34.56 38.6138 34.816C38.1978 35.064 37.8738 35.396 37.6418 35.812C37.4098 36.22 37.3018 36.664 37.3178 37.144H33.9578C33.9578 35.96 34.2178 34.936 34.7378 34.072C35.2578 33.208 35.9818 32.54 36.9098 32.068C37.8378 31.596 38.9178 31.36 40.1498 31.36C41.2778 31.36 42.2858 31.608 43.1738 32.104C44.0698 32.592 44.7738 33.276 45.2858 34.156C45.7978 35.036 46.0538 36.056 46.0538 37.216C46.0538 38.072 45.9338 38.784 45.6938 39.352C45.4538 39.912 45.0978 40.432 44.6258 40.912C44.1538 41.384 43.5738 41.92 42.8858 42.52L38.2058 46.624L37.9418 45.904H46.0538V48.976H33.9578Z" fill="white"/>
</svg>
