<svg width="80" height="80" viewBox="0 0 80 80" fill="none" xmlns="http://www.w3.org/2000/svg">
<circle opacity="0.05" cx="40" cy="40" r="40" fill="white"/>
<circle cx="40" cy="40" r="28" fill="white" fill-opacity="0.05"/>
<path d="M39.6302 49.312C40.7182 49.312 41.7182 49.06 42.6302 48.556C43.5422 48.044 44.2742 47.356 44.8262 46.492C45.3782 45.62 45.6542 44.64 45.6542 43.552C45.6542 42.744 45.5062 41.98 45.2102 41.26C44.9222 40.532 44.4942 39.9 43.9262 39.364C43.3582 38.82 42.6622 38.428 41.8382 38.188L45.3422 34.792V31.72H34.5422V34.792H41.4782L36.8222 38.656L38.2862 41.224C38.7182 40.968 39.1662 40.84 39.6302 40.84C40.4222 40.84 41.0702 41.108 41.5742 41.644C42.0862 42.172 42.3422 42.808 42.3422 43.552C42.3422 44.048 42.2182 44.5 41.9702 44.908C41.7302 45.316 41.4022 45.64 40.9862 45.88C40.5782 46.12 40.1262 46.24 39.6302 46.24C39.0542 46.24 38.5182 46.068 38.0222 45.724C37.5342 45.372 37.2062 44.88 37.0382 44.248L33.8702 45.088C34.1182 45.944 34.5302 46.688 35.1062 47.32C35.6902 47.952 36.3742 48.444 37.1582 48.796C37.9422 49.14 38.7662 49.312 39.6302 49.312Z" fill="white"/>
</svg>
