<svg width="80" height="80" viewBox="0 0 80 80" fill="none" xmlns="http://www.w3.org/2000/svg">
<circle opacity="0.05" cx="40" cy="40" r="40" fill="white"/>
<circle cx="40" cy="40" r="28" fill="white" fill-opacity="0.05"/>
<path d="M39.7496 49.36C40.8376 49.36 41.8456 49.104 42.7736 48.592C43.7016 48.072 44.4496 47.376 45.0176 46.504C45.5856 45.624 45.8696 44.64 45.8696 43.552C45.8696 42.464 45.6336 41.5 45.1616 40.66C44.6976 39.812 44.0496 39.148 43.2176 38.668C42.3936 38.18 41.4376 37.936 40.3496 37.936C39.9736 37.936 39.5736 37.984 39.1496 38.08C38.7256 38.176 38.3216 38.328 37.9376 38.536L38.1776 34.768H44.7176V31.72H35.2856L34.7576 40.912L37.5176 41.752C37.7096 41.568 37.9976 41.376 38.3816 41.176C38.7656 40.968 39.2616 40.864 39.8696 40.864C40.3656 40.864 40.8176 40.984 41.2256 41.224C41.6416 41.464 41.9696 41.788 42.2096 42.196C42.4576 42.604 42.5816 43.056 42.5816 43.552C42.5816 44.048 42.4576 44.5 42.2096 44.908C41.9696 45.316 41.6416 45.64 41.2256 45.88C40.8176 46.12 40.3656 46.24 39.8696 46.24C39.3096 46.24 38.7776 46.06 38.2736 45.7C37.7696 45.34 37.4376 44.856 37.2776 44.248L34.1336 45.088C34.3736 45.936 34.7696 46.68 35.3216 47.32C35.8736 47.96 36.5296 48.46 37.2896 48.82C38.0576 49.18 38.8776 49.36 39.7496 49.36Z" fill="white"/>
</svg>
