<svg width="80" height="80" viewBox="0 0 80 80" fill="none" xmlns="http://www.w3.org/2000/svg">
<circle opacity="0.05" cx="40" cy="40" r="40" fill="white"/>
<circle cx="40" cy="40" r="28" fill="white" fill-opacity="0.05"/>
<path d="M40.2392 49.36C41.3272 49.36 42.3272 49.104 43.2392 48.592C44.1512 48.072 44.8832 47.376 45.4352 46.504C45.9872 45.624 46.2632 44.64 46.2632 43.552C46.2632 42.464 46.0272 41.496 45.5552 40.648C45.0912 39.8 44.4432 39.132 43.6112 38.644C42.7872 38.156 41.8312 37.912 40.7432 37.912C39.5512 37.912 38.4872 38.268 37.5512 38.98V37.504C37.5512 36.976 37.6752 36.48 37.9232 36.016C38.1792 35.544 38.5352 35.164 38.9912 34.876C39.4552 34.58 39.9992 34.432 40.6232 34.432C41.4552 34.432 42.1752 34.736 42.7832 35.344L45.1112 33.016C44.4792 32.424 43.7832 32.004 43.0232 31.756C42.2632 31.508 41.4632 31.384 40.6232 31.384C39.3272 31.384 38.1992 31.652 37.2392 32.188C36.2792 32.716 35.5352 33.476 35.0072 34.468C34.4792 35.452 34.2152 36.624 34.2152 37.984V43C34.2152 44.256 34.4792 45.364 35.0072 46.324C35.5352 47.276 36.2512 48.02 37.1552 48.556C38.0672 49.092 39.0952 49.36 40.2392 49.36ZM40.2392 46.24C39.7432 46.24 39.2912 46.116 38.8832 45.868C38.4752 45.62 38.1512 45.292 37.9112 44.884C37.6712 44.476 37.5512 44.032 37.5512 43.552C37.5512 43.056 37.6712 42.604 37.9112 42.196C38.1592 41.78 38.4872 41.452 38.8952 41.212C39.3112 40.964 39.7672 40.84 40.2632 40.84C40.7592 40.84 41.2112 40.964 41.6192 41.212C42.0272 41.452 42.3512 41.78 42.5912 42.196C42.8312 42.604 42.9512 43.056 42.9512 43.552C42.9512 44.048 42.8272 44.5 42.5792 44.908C42.3392 45.316 42.0112 45.64 41.5952 45.88C41.1872 46.12 40.7352 46.24 40.2392 46.24Z" fill="white"/>
</svg>
